<svg width="25" height="26" viewBox="0 0 25 26" fill="none" xmlns="http://www.w3.org/2000/svg">
<path d="M3.33381 0.529859L12.5002 9.69628L21.6666 0.557636C21.8471 0.374001 22.0637 0.229812 22.3028 0.134188C22.5419 0.0385639 22.7982 -0.00641495 23.0555 0.00209575C23.5605 0.0347736 24.0363 0.25012 24.3941 0.607925C24.7519 0.965729 24.9672 1.44153 24.9999 1.94649C25.0024 2.19476 24.9545 2.44096 24.859 2.67015C24.7635 2.89934 24.6224 3.10675 24.4443 3.27978L15.2502 12.5018L24.4443 21.7237C24.8055 22.0737 25.0054 22.557 24.9999 23.057C24.9672 23.562 24.7519 24.0378 24.3941 24.3956C24.0363 24.7534 23.5605 24.9687 23.0555 25.0014C22.7982 25.0099 22.5419 24.9649 22.3028 24.8693C22.0637 24.7737 21.8471 24.6295 21.6666 24.4459L12.5002 15.3072L3.36159 24.4459C3.18111 24.6295 2.96449 24.7737 2.72543 24.8693C2.48637 24.9649 2.23007 25.0099 1.97274 25.0014C1.45836 24.9746 0.97214 24.7583 0.60793 24.3941C0.243719 24.0298 0.0273427 23.5436 0.000568534 23.0292C-0.00194474 22.781 0.0460007 22.5348 0.141497 22.3056C0.236992 22.0764 0.378048 21.869 0.556109 21.6959L9.7503 12.5018L0.528332 3.27978C0.355285 3.10441 0.219363 2.89596 0.128685 2.66688C0.0380065 2.43779 -0.00556665 2.19279 0.000568534 1.94649C0.0332464 1.44153 0.248593 0.965729 0.606398 0.607925C0.964202 0.25012 1.44 0.0347736 1.94496 0.00209575C2.20029 -0.0100316 2.45539 0.0305708 2.69434 0.121372C2.93329 0.212173 3.15097 0.351225 3.33381 0.529859Z" fill="#1F1F1F"/>
</svg>
